<svg xmlns="http://www.w3.org/2000/svg" xmlns:xlink="http://www.w3.org/1999/xlink" viewBox="0,0,256,256" width="50px" height="50px" fill-rule="nonzero"><g fill="#ffffff" fill-rule="nonzero" stroke="none" stroke-width="1" stroke-linecap="butt" stroke-linejoin="miter" stroke-miterlimit="10" stroke-dasharray="" stroke-dashoffset="0" font-family="none" font-weight="none" font-size="none" text-anchor="none" style="mix-blend-mode: normal"><g transform="scale(5.12,5.12)"><path d="M10.41797,5l-8.33594,17.94922l22.91797,22.05078l22.91797,-22.05078l-8.33594,-17.94922zM11.69336,7h26.61328l7.19531,15.49609l-20.50195,19.72852l-20.50195,-19.72852zM12.95703,10.04297l0.04297,5.95703h9v3.49023c-8.125,0.259 -11.58203,1.55673 -11.58203,3.05273c0,1.496 5.03103,3.15103 11.58203,3.45703v11h6v-11c6.551,-0.306 11.58203,-1.96103 11.58203,-3.45703c0,-1.496 -3.45703,-2.66873 -11.58203,-3.05273v-3.49023h9l-0.04297,-5.95703zM22,20.375v2.625c1,0.063 1.917,0.08203 3,0.08203c1.083,0 2,-0.02003 3,-0.08203v-2.5c5.389,0.26 9,0.658 9,1.75c0,1.295 -5.097,2.375 -12,2.375c-6.903,0 -12,-0.955 -12,-2.25c0,-1.092 3.611,-1.74 9,-2z"></path></g></g></svg>